<svg width="646" height="182" viewBox="0 0 646 182" fill="none" xmlns="http://www.w3.org/2000/svg">
<g filter="url(#filter0_d_2023_101)">
<rect x="13.5" y="13.5" width="619" height="155" rx="46.5" stroke="url(#paint0_linear_2023_101)" stroke-width="7" shape-rendering="crispEdges"/>
<path d="M134.94 70V55.2H137.38V61.62L136.92 61.86C137.053 61.38 137.313 60.9467 137.7 60.56C138.087 60.16 138.547 59.84 139.08 59.6C139.613 59.36 140.16 59.24 140.72 59.24C141.52 59.24 142.187 59.4 142.72 59.72C143.267 60.04 143.673 60.52 143.94 61.16C144.22 61.8 144.36 62.6 144.36 63.56V70H141.9V63.74C141.9 63.2067 141.827 62.7667 141.68 62.42C141.533 62.06 141.307 61.8 141 61.64C140.693 61.4667 140.32 61.3867 139.88 61.4C139.52 61.4 139.187 61.46 138.88 61.58C138.587 61.6867 138.327 61.8467 138.1 62.06C137.887 62.26 137.713 62.4933 137.58 62.76C137.46 63.0267 137.4 63.32 137.4 63.64V70H136.18C135.94 70 135.713 70 135.5 70C135.3 70 135.113 70 134.94 70ZM147.408 70V59.46H149.868V70H147.408ZM148.608 57.22C148.114 57.22 147.728 57.1 147.448 56.86C147.181 56.6067 147.048 56.2533 147.048 55.8C147.048 55.3733 147.188 55.0267 147.468 54.76C147.748 54.4933 148.128 54.36 148.608 54.36C149.114 54.36 149.501 54.4867 149.768 54.74C150.048 54.98 150.188 55.3333 150.188 55.8C150.188 56.2133 150.048 56.5533 149.768 56.82C149.488 57.0867 149.101 57.22 148.608 57.22ZM153.407 65.08C153.314 64.2533 153.22 63.4 153.127 62.52C153.047 61.6267 152.98 60.7467 152.927 59.88C152.874 59 152.847 58.1667 152.847 57.38V55.92H155.447V57.38C155.447 58.1933 155.42 59.0467 155.367 59.94C155.327 60.8333 155.26 61.72 155.167 62.6C155.087 63.48 154.994 64.3067 154.887 65.08H153.407ZM154.107 70.22C153.627 70.22 153.254 70.08 152.987 69.8C152.734 69.52 152.607 69.1267 152.607 68.62C152.607 68.1533 152.74 67.7733 153.007 67.48C153.287 67.1733 153.654 67.02 154.107 67.02C154.587 67.02 154.954 67.16 155.207 67.44C155.474 67.7067 155.607 68.1 155.607 68.62C155.607 69.0867 155.467 69.4733 155.187 69.78C154.92 70.0733 154.56 70.22 154.107 70.22ZM164.38 70V59.46H166.84V70H164.38ZM165.58 57.22C165.087 57.22 164.7 57.1 164.42 56.86C164.153 56.6067 164.02 56.2533 164.02 55.8C164.02 55.3733 164.16 55.0267 164.44 54.76C164.72 54.4933 165.1 54.36 165.58 54.36C166.087 54.36 166.473 54.4867 166.74 54.74C167.02 54.98 167.16 55.3333 167.16 55.8C167.16 56.2133 167.02 56.5533 166.74 56.82C166.46 57.0867 166.073 57.22 165.58 57.22ZM169.78 60.82L168.96 59.84C169.493 59.6 169.926 59.32 170.26 59C170.593 58.6667 170.76 58.3867 170.76 58.16C170.76 58 170.693 57.8533 170.56 57.72C170.44 57.5733 170.306 57.4467 170.16 57.34C169.853 57.1 169.646 56.8933 169.54 56.72C169.433 56.5467 169.38 56.3533 169.38 56.14C169.38 55.7933 169.506 55.5133 169.76 55.3C170.026 55.0867 170.36 54.98 170.76 54.98C171.133 54.98 171.473 55.08 171.78 55.28C172.1 55.48 172.346 55.7533 172.52 56.1C172.693 56.4467 172.78 56.86 172.78 57.34C172.78 57.7133 172.706 58.08 172.56 58.44C172.413 58.8 172.2 59.14 171.92 59.46C171.653 59.7667 171.333 60.04 170.96 60.28C170.6 60.52 170.206 60.7 169.78 60.82ZM174.373 70V59.46H176.793L176.833 61.58L176.433 61.74C176.553 61.3933 176.733 61.0733 176.973 60.78C177.213 60.4733 177.499 60.2133 177.833 60C178.166 59.7733 178.519 59.6 178.893 59.48C179.266 59.3467 179.646 59.28 180.033 59.28C180.606 59.28 181.113 59.3733 181.553 59.56C182.006 59.7333 182.379 60.0133 182.673 60.4C182.979 60.7867 183.206 61.28 183.353 61.88L182.973 61.8L183.133 61.48C183.279 61.16 183.486 60.8733 183.753 60.62C184.019 60.3533 184.319 60.12 184.653 59.92C184.986 59.7067 185.333 59.5467 185.693 59.44C186.066 59.3333 186.433 59.28 186.793 59.28C187.593 59.28 188.259 59.44 188.793 59.76C189.326 60.08 189.726 60.5667 189.993 61.22C190.259 61.8733 190.393 62.68 190.393 63.64V70H187.913V63.8C187.913 63.2667 187.839 62.8267 187.693 62.48C187.559 62.1333 187.346 61.88 187.053 61.72C186.773 61.5467 186.419 61.46 185.993 61.46C185.659 61.46 185.339 61.52 185.033 61.64C184.739 61.7467 184.486 61.9067 184.273 62.12C184.059 62.32 183.893 62.5533 183.773 62.82C183.653 63.0867 183.593 63.38 183.593 63.7V70H181.113V63.78C181.113 63.2733 181.039 62.8533 180.893 62.52C180.746 62.1733 180.533 61.9133 180.253 61.74C179.973 61.5533 179.633 61.46 179.233 61.46C178.899 61.46 178.586 61.52 178.293 61.64C177.999 61.7467 177.746 61.9 177.533 62.1C177.319 62.3 177.153 62.5333 177.033 62.8C176.913 63.0667 176.853 63.36 176.853 63.68V70H174.373Z" fill="#DFDFDF"/>
<g filter="url(#filter1_i_2023_101)">
<path d="M147.233 116.468C144.945 116.468 142.883 115.861 141.045 114.648C139.243 113.4 137.804 111.701 136.729 109.552C135.689 107.368 135.169 104.889 135.169 102.116C135.169 99.2733 135.689 96.7773 136.729 94.628C137.769 92.4787 139.208 90.7973 141.045 89.584C142.883 88.336 144.997 87.712 147.389 87.712C148.672 87.712 149.851 87.8853 150.925 88.232C152 88.5787 152.936 89.0813 153.733 89.74C154.531 90.3987 155.224 91.144 155.813 91.976C156.403 92.808 156.888 93.7093 157.269 94.68L155.293 94.576V88.284H164.809V116H155.085V109.24L157.217 109.344C156.905 110.349 156.437 111.285 155.813 112.152C155.224 113.019 154.496 113.781 153.629 114.44C152.763 115.064 151.792 115.567 150.717 115.948C149.677 116.295 148.516 116.468 147.233 116.468ZM149.989 108.512C151.099 108.512 152.052 108.269 152.849 107.784C153.647 107.264 154.253 106.519 154.669 105.548C155.12 104.577 155.345 103.433 155.345 102.116C155.345 100.764 155.12 99.6027 154.669 98.632C154.253 97.6613 153.647 96.9333 152.849 96.448C152.052 95.928 151.099 95.668 149.989 95.668C148.88 95.668 147.927 95.928 147.129 96.448C146.367 96.9333 145.777 97.6613 145.361 98.632C144.945 99.6027 144.737 100.764 144.737 102.116C144.737 103.433 144.945 104.577 145.361 105.548C145.777 106.519 146.367 107.264 147.129 107.784C147.927 108.269 148.88 108.512 149.989 108.512ZM171.616 116V77.52H181.288V116H171.616ZM200.963 116.52C197.808 116.52 195.087 115.913 192.799 114.7C190.511 113.452 188.743 111.753 187.495 109.604C186.247 107.42 185.623 104.941 185.623 102.168C185.623 100.088 185.97 98.164 186.663 96.396C187.356 94.628 188.327 93.1027 189.575 91.82C190.823 90.5027 192.296 89.4973 193.995 88.804C195.728 88.076 197.618 87.712 199.663 87.712C201.674 87.712 203.494 88.0587 205.123 88.752C206.787 89.4453 208.208 90.4333 209.387 91.716C210.6 92.9987 211.519 94.5067 212.143 96.24C212.802 97.9733 213.096 99.88 213.027 101.96L212.975 104.144H191.135L189.939 99.308H205.227L204.291 100.348V99.36C204.291 98.5973 204.083 97.9387 203.667 97.384C203.286 96.7947 202.766 96.344 202.107 96.032C201.448 95.72 200.703 95.564 199.871 95.564C198.692 95.564 197.704 95.8067 196.907 96.292C196.144 96.7427 195.555 97.4013 195.139 98.268C194.723 99.1347 194.515 100.175 194.515 101.388C194.515 102.775 194.792 103.971 195.347 104.976C195.936 105.981 196.786 106.761 197.895 107.316C199.039 107.871 200.426 108.148 202.055 108.148C203.13 108.148 204.066 108.009 204.863 107.732C205.695 107.455 206.579 106.969 207.515 106.276L211.987 112.568C210.774 113.539 209.543 114.319 208.295 114.908C207.082 115.463 205.868 115.861 204.655 116.104C203.442 116.381 202.211 116.52 200.963 116.52ZM233.931 116L229.355 108.252L225.767 103.208L215.159 88.284H226.599L230.863 95.46L234.763 100.816L245.319 116H233.931ZM214.743 116L226.027 99.828L231.123 105.86L226.131 116H214.743ZM233.723 104.508L228.679 98.476L233.567 88.284H244.955L233.723 104.508ZM268.296 116V81.264H277.968V116H268.296ZM263.72 96.5V88.284H282.804V96.5H263.72ZM290.047 127.96L296.703 112.256L296.807 116.52L283.651 88.284H294.467L299.095 99.308C299.476 100.175 299.805 101.041 300.083 101.908C300.395 102.74 300.62 103.537 300.759 104.3L299.667 105.132C299.805 104.681 300.013 104.057 300.291 103.26C300.568 102.463 300.88 101.544 301.227 100.504L305.439 88.284H316.307L304.295 116L299.459 127.96H290.047ZM319.671 116V77.52H329.135V93.9L327.159 94.524C327.505 93.2067 328.181 92.0453 329.187 91.04C330.192 90 331.388 89.1853 332.775 88.596C334.161 88.0067 335.617 87.712 337.143 87.712C339.223 87.712 340.973 88.1453 342.395 89.012C343.851 89.844 344.943 91.1093 345.671 92.808C346.433 94.472 346.815 96.5173 346.815 98.944V116H337.143V99.724C337.143 98.8227 337.004 98.0773 336.727 97.488C336.449 96.864 336.033 96.396 335.479 96.084C334.924 95.772 334.265 95.6333 333.503 95.668C332.913 95.668 332.359 95.7547 331.839 95.928C331.353 96.1013 330.92 96.3787 330.539 96.76C330.157 97.1067 329.863 97.5053 329.655 97.956C329.481 98.4067 329.395 98.9093 329.395 99.464V116H324.559C323.38 116 322.375 116 321.543 116C320.745 116 320.121 116 319.671 116ZM375.946 116L366.95 88.284H377.194L381.666 105.08L380.574 104.872L385.618 91.82H391.234L396.694 104.872L395.602 105.028L400.022 88.284H410.266L400.802 116H393.522L388.27 102.376H388.634L383.226 116H375.946ZM423.057 116.468C420.769 116.468 418.706 115.861 416.869 114.648C415.066 113.4 413.628 111.701 412.553 109.552C411.513 107.368 410.993 104.889 410.993 102.116C410.993 99.2733 411.513 96.7773 412.553 94.628C413.593 92.4787 415.032 90.7973 416.869 89.584C418.706 88.336 420.821 87.712 423.213 87.712C424.496 87.712 425.674 87.8853 426.749 88.232C427.824 88.5787 428.76 89.0813 429.557 89.74C430.354 90.3987 431.048 91.144 431.637 91.976C432.226 92.808 432.712 93.7093 433.093 94.68L431.117 94.576V88.284H440.633V116H430.909V109.24L433.041 109.344C432.729 110.349 432.261 111.285 431.637 112.152C431.048 113.019 430.32 113.781 429.453 114.44C428.586 115.064 427.616 115.567 426.541 115.948C425.501 116.295 424.34 116.468 423.057 116.468ZM425.813 108.512C426.922 108.512 427.876 108.269 428.673 107.784C429.47 107.264 430.077 106.519 430.493 105.548C430.944 104.577 431.169 103.433 431.169 102.116C431.169 100.764 430.944 99.6027 430.493 98.632C430.077 97.6613 429.47 96.9333 428.673 96.448C427.876 95.928 426.922 95.668 425.813 95.668C424.704 95.668 423.75 95.928 422.953 96.448C422.19 96.9333 421.601 97.6613 421.185 98.632C420.769 99.6027 420.561 100.764 420.561 102.116C420.561 103.433 420.769 104.577 421.185 105.548C421.601 106.519 422.19 107.264 422.953 107.784C423.75 108.269 424.704 108.512 425.813 108.512ZM447.388 116V88.284H456.436L456.852 93.9L454.876 94.524C455.222 93.2067 455.898 92.0453 456.904 91.04C457.909 90 459.105 89.1853 460.492 88.596C461.878 88.0067 463.334 87.712 464.86 87.712C466.94 87.712 468.69 88.1453 470.112 89.012C471.568 89.844 472.66 91.1093 473.388 92.808C474.15 94.472 474.532 96.5173 474.532 98.944V116H464.86V99.724C464.86 98.8227 464.721 98.0773 464.444 97.488C464.166 96.864 463.75 96.396 463.196 96.084C462.641 95.772 461.982 95.6333 461.22 95.668C460.63 95.668 460.076 95.7547 459.556 95.928C459.07 96.1013 458.637 96.3787 458.256 96.76C457.874 97.1067 457.58 97.5053 457.372 97.956C457.198 98.4067 457.112 98.9093 457.112 99.464V116H452.276C451.097 116 450.092 116 449.26 116C448.462 116 447.838 116 447.388 116ZM493.684 127.96C491.292 127.96 488.918 127.613 486.56 126.92C484.203 126.261 482.279 125.395 480.788 124.32L484.064 117.716C484.827 118.201 485.624 118.617 486.456 118.964C487.323 119.345 488.224 119.623 489.16 119.796C490.096 119.969 491.084 120.056 492.124 120.056C493.788 120.056 495.14 119.813 496.18 119.328C497.255 118.877 498.035 118.167 498.52 117.196C499.04 116.225 499.3 114.977 499.3 113.452V109.084L501.328 109.344C501.086 110.488 500.496 111.528 499.56 112.464C498.624 113.365 497.446 114.093 496.024 114.648C494.638 115.168 493.182 115.428 491.656 115.428C489.16 115.428 486.959 114.873 485.052 113.764C483.146 112.62 481.638 111.043 480.528 109.032C479.419 107.021 478.864 104.664 478.864 101.96C478.864 99.152 479.402 96.6907 480.476 94.576C481.586 92.4267 483.076 90.7453 484.948 89.532C486.82 88.3187 488.97 87.712 491.396 87.712C492.436 87.712 493.424 87.816 494.36 88.024C495.296 88.232 496.163 88.5267 496.96 88.908C497.792 89.2893 498.52 89.7573 499.144 90.312C499.768 90.832 500.271 91.404 500.652 92.028C501.068 92.652 501.346 93.3107 501.484 94.004L499.508 94.472L499.976 88.284H509.024V113.452C509.024 115.775 508.678 117.82 507.984 119.588C507.291 121.391 506.268 122.916 504.916 124.164C503.599 125.412 501.987 126.348 500.08 126.972C498.208 127.631 496.076 127.96 493.684 127.96ZM493.944 108.356C495.123 108.356 496.128 108.096 496.96 107.576C497.792 107.056 498.434 106.328 498.884 105.392C499.335 104.456 499.56 103.329 499.56 102.012C499.56 100.695 499.335 99.568 498.884 98.632C498.434 97.6613 497.792 96.9333 496.96 96.448C496.128 95.928 495.123 95.668 493.944 95.668C492.766 95.668 491.76 95.928 490.928 96.448C490.096 96.9333 489.455 97.6613 489.004 98.632C488.588 99.568 488.38 100.695 488.38 102.012C488.38 103.329 488.588 104.456 489.004 105.392C489.455 106.328 490.096 107.056 490.928 107.576C491.76 108.096 492.766 108.356 493.944 108.356Z" fill="white"/>
</g>
</g>
<defs>
<filter id="filter0_d_2023_101" x="5" y="5" width="636" height="172" filterUnits="userSpaceOnUse" color-interpolation-filters="sRGB">
<feFlood flood-opacity="0" result="BackgroundImageFix"/>
<feColorMatrix in="SourceAlpha" type="matrix" values="0 0 0 0 0 0 0 0 0 0 0 0 0 0 0 0 0 0 127 0" result="hardAlpha"/>
<feOffset/>
<feGaussianBlur stdDeviation="2.5"/>
<feComposite in2="hardAlpha" operator="out"/>
<feColorMatrix type="matrix" values="0 0 0 0 0.00392157 0 0 0 0 0.458824 0 0 0 0 0.819608 0 0 0 0.25 0"/>
<feBlend mode="normal" in2="BackgroundImageFix" result="effect1_dropShadow_2023_101"/>
<feBlend mode="normal" in="SourceGraphic" in2="effect1_dropShadow_2023_101" result="shape"/>
</filter>
<filter id="filter1_i_2023_101" x="135.169" y="77.52" width="373.855" height="52.44" filterUnits="userSpaceOnUse" color-interpolation-filters="sRGB">
<feFlood flood-opacity="0" result="BackgroundImageFix"/>
<feBlend mode="normal" in="SourceGraphic" in2="BackgroundImageFix" result="shape"/>
<feColorMatrix in="SourceAlpha" type="matrix" values="0 0 0 0 0 0 0 0 0 0 0 0 0 0 0 0 0 0 127 0" result="hardAlpha"/>
<feOffset dy="2"/>
<feGaussianBlur stdDeviation="2"/>
<feComposite in2="hardAlpha" operator="arithmetic" k2="-1" k3="1"/>
<feColorMatrix type="matrix" values="0 0 0 0 0 0 0 0 0 0 0 0 0 0 0 0 0 0 0.25 0"/>
<feBlend mode="normal" in2="shape" result="effect1_innerShadow_2023_101"/>
</filter>
<linearGradient id="paint0_linear_2023_101" x1="-24.9697" y1="-18.8713" x2="644.921" y2="251.022" gradientUnits="userSpaceOnUse">
<stop stop-color="#00A6FF"/>
<stop offset="1" stop-color="#0053B2"/>
</linearGradient>
</defs>
</svg>
