<svg width="646" height="182" viewBox="0 0 646 182" fill="none" xmlns="http://www.w3.org/2000/svg">
<g filter="url(#filter0_d_2023_101)">
<rect x="13.5" y="13.5" width="619" height="155" rx="46.5" stroke="url(#paint0_linear_2023_101)" stroke-width="7" shape-rendering="crispEdges"/>
<path d="M90.94 65.5V50.7H93.38V57.12L92.92 57.36C93.0533 56.88 93.3133 56.4467 93.7 56.06C94.0867 55.66 94.5467 55.34 95.08 55.1C95.6133 54.86 96.16 54.74 96.72 54.74C97.52 54.74 98.1867 54.9 98.72 55.22C99.2667 55.54 99.6733 56.02 99.94 56.66C100.22 57.3 100.36 58.1 100.36 59.06V65.5H97.9V59.24C97.9 58.7067 97.8267 58.2667 97.68 57.92C97.5333 57.56 97.3067 57.3 97 57.14C96.6933 56.9667 96.32 56.8867 95.88 56.9C95.52 56.9 95.1867 56.96 94.88 57.08C94.5867 57.1867 94.3267 57.3467 94.1 57.56C93.8867 57.76 93.7133 57.9933 93.58 58.26C93.46 58.5267 93.4 58.82 93.4 59.14V65.5H92.18C91.94 65.5 91.7133 65.5 91.5 65.5C91.3 65.5 91.1133 65.5 90.94 65.5ZM103.408 65.5V54.96H105.868V65.5H103.408ZM104.608 52.72C104.114 52.72 103.728 52.6 103.448 52.36C103.181 52.1067 103.048 51.7533 103.048 51.3C103.048 50.8733 103.188 50.5267 103.468 50.26C103.748 49.9933 104.128 49.86 104.608 49.86C105.114 49.86 105.501 49.9867 105.768 50.24C106.048 50.48 106.188 50.8333 106.188 51.3C106.188 51.7133 106.048 52.0533 105.768 52.32C105.488 52.5867 105.101 52.72 104.608 52.72ZM109.407 60.58C109.314 59.7533 109.22 58.9 109.127 58.02C109.047 57.1267 108.98 56.2467 108.927 55.38C108.874 54.5 108.847 53.6667 108.847 52.88V51.42H111.447V52.88C111.447 53.6933 111.42 54.5467 111.367 55.44C111.327 56.3333 111.26 57.22 111.167 58.1C111.087 58.98 110.994 59.8067 110.887 60.58H109.407ZM110.107 65.72C109.627 65.72 109.254 65.58 108.987 65.3C108.734 65.02 108.607 64.6267 108.607 64.12C108.607 63.6533 108.74 63.2733 109.007 62.98C109.287 62.6733 109.654 62.52 110.107 62.52C110.587 62.52 110.954 62.66 111.207 62.94C111.474 63.2067 111.607 63.6 111.607 64.12C111.607 64.5867 111.467 64.9733 111.187 65.28C110.92 65.5733 110.56 65.72 110.107 65.72ZM120.38 65.5V54.96H122.84V65.5H120.38ZM121.58 52.72C121.087 52.72 120.7 52.6 120.42 52.36C120.153 52.1067 120.02 51.7533 120.02 51.3C120.02 50.8733 120.16 50.5267 120.44 50.26C120.72 49.9933 121.1 49.86 121.58 49.86C122.087 49.86 122.473 49.9867 122.74 50.24C123.02 50.48 123.16 50.8333 123.16 51.3C123.16 51.7133 123.02 52.0533 122.74 52.32C122.46 52.5867 122.073 52.72 121.58 52.72ZM125.78 56.32L124.96 55.34C125.493 55.1 125.926 54.82 126.26 54.5C126.593 54.1667 126.76 53.8867 126.76 53.66C126.76 53.5 126.693 53.3533 126.56 53.22C126.44 53.0733 126.306 52.9467 126.16 52.84C125.853 52.6 125.646 52.3933 125.54 52.22C125.433 52.0467 125.38 51.8533 125.38 51.64C125.38 51.2933 125.506 51.0133 125.76 50.8C126.026 50.5867 126.36 50.48 126.76 50.48C127.133 50.48 127.473 50.58 127.78 50.78C128.1 50.98 128.346 51.2533 128.52 51.6C128.693 51.9467 128.78 52.36 128.78 52.84C128.78 53.2133 128.706 53.58 128.56 53.94C128.413 54.3 128.2 54.64 127.92 54.96C127.653 55.2667 127.333 55.54 126.96 55.78C126.6 56.02 126.206 56.2 125.78 56.32ZM130.373 65.5V54.96H132.793L132.833 57.08L132.433 57.24C132.553 56.8933 132.733 56.5733 132.973 56.28C133.213 55.9733 133.499 55.7133 133.833 55.5C134.166 55.2733 134.519 55.1 134.893 54.98C135.266 54.8467 135.646 54.78 136.033 54.78C136.606 54.78 137.113 54.8733 137.553 55.06C138.006 55.2333 138.379 55.5133 138.673 55.9C138.979 56.2867 139.206 56.78 139.353 57.38L138.973 57.3L139.133 56.98C139.279 56.66 139.486 56.3733 139.753 56.12C140.019 55.8533 140.319 55.62 140.653 55.42C140.986 55.2067 141.333 55.0467 141.693 54.94C142.066 54.8333 142.433 54.78 142.793 54.78C143.593 54.78 144.259 54.94 144.793 55.26C145.326 55.58 145.726 56.0667 145.993 56.72C146.259 57.3733 146.393 58.18 146.393 59.14V65.5H143.913V59.3C143.913 58.7667 143.839 58.3267 143.693 57.98C143.559 57.6333 143.346 57.38 143.053 57.22C142.773 57.0467 142.419 56.96 141.993 56.96C141.659 56.96 141.339 57.02 141.033 57.14C140.739 57.2467 140.486 57.4067 140.273 57.62C140.059 57.82 139.893 58.0533 139.773 58.32C139.653 58.5867 139.593 58.88 139.593 59.2V65.5H137.113V59.28C137.113 58.7733 137.039 58.3533 136.893 58.02C136.746 57.6733 136.533 57.4133 136.253 57.24C135.973 57.0533 135.633 56.96 135.233 56.96C134.899 56.96 134.586 57.02 134.293 57.14C133.999 57.2467 133.746 57.4 133.533 57.6C133.319 57.8 133.153 58.0333 133.033 58.3C132.913 58.5667 132.853 58.86 132.853 59.18V65.5H130.373Z" fill="#DFDFDF"/>
<g filter="url(#filter1_i_2023_101)">
<path d="M106.672 121.076C103.856 121.076 101.317 120.329 99.056 118.836C96.8373 117.3 95.0667 115.209 93.744 112.564C92.464 109.876 91.824 106.825 91.824 103.412C91.824 99.9133 92.464 96.8413 93.744 94.196C95.024 91.5507 96.7947 89.4813 99.056 87.988C101.317 86.452 103.92 85.684 106.864 85.684C108.443 85.684 109.893 85.8973 111.216 86.324C112.539 86.7507 113.691 87.3693 114.672 88.18C115.653 88.9907 116.507 89.908 117.232 90.932C117.957 91.956 118.555 93.0653 119.024 94.26L116.592 94.132V86.388H128.304V120.5H116.336V112.18L118.96 112.308C118.576 113.545 118 114.697 117.232 115.764C116.507 116.831 115.611 117.769 114.544 118.58C113.477 119.348 112.283 119.967 110.96 120.436C109.68 120.863 108.251 121.076 106.672 121.076ZM110.064 111.284C111.429 111.284 112.603 110.985 113.584 110.388C114.565 109.748 115.312 108.831 115.824 107.636C116.379 106.441 116.656 105.033 116.656 103.412C116.656 101.748 116.379 100.319 115.824 99.124C115.312 97.9293 114.565 97.0333 113.584 96.436C112.603 95.796 111.429 95.476 110.064 95.476C108.699 95.476 107.525 95.796 106.544 96.436C105.605 97.0333 104.88 97.9293 104.368 99.124C103.856 100.319 103.6 101.748 103.6 103.412C103.6 105.033 103.856 106.441 104.368 107.636C104.88 108.831 105.605 109.748 106.544 110.388C107.525 110.985 108.699 111.284 110.064 111.284ZM136.681 120.5V73.14H148.585V120.5H136.681ZM172.8 121.14C168.918 121.14 165.568 120.393 162.752 118.9C159.936 117.364 157.76 115.273 156.224 112.628C154.688 109.94 153.92 106.889 153.92 103.476C153.92 100.916 154.347 98.548 155.2 96.372C156.054 94.196 157.248 92.3187 158.784 90.74C160.32 89.1187 162.134 87.8813 164.224 87.028C166.358 86.132 168.683 85.684 171.2 85.684C173.675 85.684 175.915 86.1107 177.92 86.964C179.968 87.8173 181.718 89.0333 183.168 90.612C184.662 92.1907 185.793 94.0467 186.561 96.18C187.371 98.3133 187.734 100.66 187.648 103.22L187.584 105.908H160.704L159.232 99.956H178.048L176.896 101.236V100.02C176.896 99.0813 176.64 98.2707 176.128 97.588C175.659 96.8627 175.019 96.308 174.208 95.924C173.398 95.54 172.48 95.348 171.456 95.348C170.006 95.348 168.79 95.6467 167.808 96.244C166.87 96.7987 166.144 97.6093 165.632 98.676C165.12 99.7427 164.864 101.023 164.864 102.516C164.864 104.223 165.206 105.695 165.888 106.932C166.614 108.169 167.659 109.129 169.024 109.812C170.432 110.495 172.139 110.836 174.144 110.836C175.467 110.836 176.619 110.665 177.6 110.324C178.624 109.983 179.712 109.385 180.864 108.532L186.368 116.276C184.875 117.471 183.36 118.431 181.824 119.156C180.331 119.839 178.838 120.329 177.344 120.628C175.851 120.969 174.336 121.14 172.8 121.14ZM213.377 120.5L207.745 110.964L203.329 104.756L190.273 86.388H204.353L209.601 95.22L214.401 101.812L227.393 120.5H213.377ZM189.761 120.5L203.649 100.596L209.921 108.02L203.777 120.5H189.761ZM213.121 106.356L206.913 98.932L212.929 86.388H226.945L213.121 106.356ZM255.672 120.5V77.748H267.576V120.5H255.672ZM250.04 96.5V86.388H273.528V96.5H250.04ZM282.442 135.22L290.634 115.892L290.762 121.14L274.57 86.388H287.882L293.578 99.956C294.047 101.023 294.453 102.089 294.794 103.156C295.178 104.18 295.455 105.161 295.626 106.1L294.282 107.124C294.453 106.569 294.709 105.801 295.05 104.82C295.391 103.839 295.775 102.708 296.202 101.428L301.386 86.388H314.762L299.978 120.5L294.026 135.22H282.442ZM318.903 120.5V73.14H330.551V93.3L328.119 94.068C328.545 92.4467 329.377 91.0173 330.615 89.78C331.852 88.5 333.324 87.4973 335.031 86.772C336.737 86.0467 338.529 85.684 340.407 85.684C342.967 85.684 345.121 86.2173 346.871 87.284C348.663 88.308 350.007 89.8653 350.903 91.956C351.841 94.004 352.311 96.5213 352.311 99.508V120.5H340.407V100.468C340.407 99.3587 340.236 98.4413 339.895 97.716C339.553 96.948 339.041 96.372 338.359 95.988C337.676 95.604 336.865 95.4333 335.927 95.476C335.201 95.476 334.519 95.5827 333.879 95.796C333.281 96.0093 332.748 96.3507 332.279 96.82C331.809 97.2467 331.447 97.7373 331.191 98.292C330.977 98.8467 330.871 99.4653 330.871 100.148V120.5H324.919C323.468 120.5 322.231 120.5 321.207 120.5C320.225 120.5 319.457 120.5 318.903 120.5ZM388.164 120.5L377.092 86.388H389.7L395.204 107.06L393.86 106.804L400.068 90.74H406.98L413.7 106.804L412.356 106.996L417.796 86.388H430.404L418.756 120.5H409.796L403.332 103.732H403.78L397.124 120.5H388.164ZM446.147 121.076C443.331 121.076 440.792 120.329 438.531 118.836C436.312 117.3 434.542 115.209 433.219 112.564C431.939 109.876 431.299 106.825 431.299 103.412C431.299 99.9133 431.939 96.8413 433.219 94.196C434.499 91.5507 436.27 89.4813 438.531 87.988C440.792 86.452 443.395 85.684 446.339 85.684C447.918 85.684 449.368 85.8973 450.691 86.324C452.014 86.7507 453.166 87.3693 454.147 88.18C455.128 88.9907 455.982 89.908 456.707 90.932C457.432 91.956 458.03 93.0653 458.499 94.26L456.067 94.132V86.388H467.779V120.5H455.811V112.18L458.435 112.308C458.051 113.545 457.475 114.697 456.707 115.764C455.982 116.831 455.086 117.769 454.019 118.58C452.952 119.348 451.758 119.967 450.435 120.436C449.155 120.863 447.726 121.076 446.147 121.076ZM449.539 111.284C450.904 111.284 452.078 110.985 453.059 110.388C454.04 109.748 454.787 108.831 455.299 107.636C455.854 106.441 456.131 105.033 456.131 103.412C456.131 101.748 455.854 100.319 455.299 99.124C454.787 97.9293 454.04 97.0333 453.059 96.436C452.078 95.796 450.904 95.476 449.539 95.476C448.174 95.476 447 95.796 446.019 96.436C445.08 97.0333 444.355 97.9293 443.843 99.124C443.331 100.319 443.075 101.748 443.075 103.412C443.075 105.033 443.331 106.441 443.843 107.636C444.355 108.831 445.08 109.748 446.019 110.388C447 110.985 448.174 111.284 449.539 111.284ZM476.092 120.5V86.388H487.228L487.74 93.3L485.308 94.068C485.735 92.4467 486.567 91.0173 487.804 89.78C489.042 88.5 490.514 87.4973 492.22 86.772C493.927 86.0467 495.719 85.684 497.596 85.684C500.156 85.684 502.311 86.2173 504.06 87.284C505.852 88.308 507.196 89.8653 508.092 91.956C509.031 94.004 509.5 96.5213 509.5 99.508V120.5H497.596V100.468C497.596 99.3587 497.426 98.4413 497.084 97.716C496.743 96.948 496.231 96.372 495.548 95.988C494.866 95.604 494.055 95.4333 493.116 95.476C492.391 95.476 491.708 95.5827 491.068 95.796C490.471 96.0093 489.938 96.3507 489.468 96.82C488.999 97.2467 488.636 97.7373 488.38 98.292C488.167 98.8467 488.06 99.4653 488.06 100.148V120.5H482.108C480.658 120.5 479.42 120.5 478.396 120.5C477.415 120.5 476.647 120.5 476.092 120.5ZM533.073 135.22C530.129 135.22 527.206 134.793 524.305 133.94C521.404 133.129 519.036 132.063 517.201 130.74L521.233 122.612C522.172 123.209 523.153 123.721 524.177 124.148C525.244 124.617 526.353 124.959 527.505 125.172C528.657 125.385 529.873 125.492 531.153 125.492C533.201 125.492 534.865 125.193 536.145 124.596C537.468 124.041 538.428 123.167 539.025 121.972C539.665 120.777 539.985 119.241 539.985 117.364V111.988L542.481 112.308C542.182 113.716 541.457 114.996 540.305 116.148C539.153 117.257 537.702 118.153 535.953 118.836C534.246 119.476 532.454 119.796 530.577 119.796C527.505 119.796 524.796 119.113 522.449 117.748C520.102 116.34 518.246 114.399 516.881 111.924C515.516 109.449 514.833 106.548 514.833 103.22C514.833 99.764 515.494 96.7347 516.817 94.132C518.182 91.4867 520.017 89.4173 522.321 87.924C524.625 86.4307 527.27 85.684 530.257 85.684C531.537 85.684 532.753 85.812 533.905 86.068C535.057 86.324 536.124 86.6867 537.105 87.156C538.129 87.6253 539.025 88.2013 539.793 88.884C540.561 89.524 541.18 90.228 541.649 90.996C542.161 91.764 542.502 92.5747 542.673 93.428L540.241 94.004L540.817 86.388H551.953V117.364C551.953 120.223 551.526 122.74 550.673 124.916C549.82 127.135 548.561 129.012 546.897 130.548C545.276 132.084 543.292 133.236 540.945 134.004C538.641 134.815 536.017 135.22 533.073 135.22ZM533.393 111.092C534.844 111.092 536.081 110.772 537.105 110.132C538.129 109.492 538.918 108.596 539.473 107.444C540.028 106.292 540.305 104.905 540.305 103.284C540.305 101.663 540.028 100.276 539.473 99.124C538.918 97.9293 538.129 97.0333 537.105 96.436C536.081 95.796 534.844 95.476 533.393 95.476C531.942 95.476 530.705 95.796 529.681 96.436C528.657 97.0333 527.868 97.9293 527.313 99.124C526.801 100.276 526.545 101.663 526.545 103.284C526.545 104.905 526.801 106.292 527.313 107.444C527.868 108.596 528.657 109.492 529.681 110.132C530.705 110.772 531.942 111.092 533.393 111.092Z" fill="white"/>
</g>
</g>
<defs>
<filter id="filter0_d_2023_101" x="5" y="5" width="636" height="172" filterUnits="userSpaceOnUse" color-interpolation-filters="sRGB">
<feFlood flood-opacity="0" result="BackgroundImageFix"/>
<feColorMatrix in="SourceAlpha" type="matrix" values="0 0 0 0 0 0 0 0 0 0 0 0 0 0 0 0 0 0 127 0" result="hardAlpha"/>
<feOffset/>
<feGaussianBlur stdDeviation="2.5"/>
<feComposite in2="hardAlpha" operator="out"/>
<feColorMatrix type="matrix" values="0 0 0 0 0.00392157 0 0 0 0 0.458824 0 0 0 0 0.819608 0 0 0 0.25 0"/>
<feBlend mode="normal" in2="BackgroundImageFix" result="effect1_dropShadow_2023_101"/>
<feBlend mode="normal" in="SourceGraphic" in2="effect1_dropShadow_2023_101" result="shape"/>
</filter>
<filter id="filter1_i_2023_101" x="91.824" y="73.14" width="460.129" height="64.08" filterUnits="userSpaceOnUse" color-interpolation-filters="sRGB">
<feFlood flood-opacity="0" result="BackgroundImageFix"/>
<feBlend mode="normal" in="SourceGraphic" in2="BackgroundImageFix" result="shape"/>
<feColorMatrix in="SourceAlpha" type="matrix" values="0 0 0 0 0 0 0 0 0 0 0 0 0 0 0 0 0 0 127 0" result="hardAlpha"/>
<feOffset dy="2"/>
<feGaussianBlur stdDeviation="2"/>
<feComposite in2="hardAlpha" operator="arithmetic" k2="-1" k3="1"/>
<feColorMatrix type="matrix" values="0 0 0 0 0 0 0 0 0 0 0 0 0 0 0 0 0 0 0.25 0"/>
<feBlend mode="normal" in2="shape" result="effect1_innerShadow_2023_101"/>
</filter>
<linearGradient id="paint0_linear_2023_101" x1="-24.9697" y1="-18.8713" x2="644.921" y2="251.022" gradientUnits="userSpaceOnUse">
<stop stop-color="#00A6FF"/>
<stop offset="1" stop-color="#0053B2"/>
</linearGradient>
</defs>
</svg>
