<svg width="1410" height="317" viewBox="0 0 1410 317" fill="none" xmlns="http://www.w3.org/2000/svg">
<g filter="url(#filter0_d_2025_154)">
<rect x="12.5" y="12.5" width="1385" height="292" rx="92.5" stroke="url(#paint0_linear_2025_154)" stroke-width="15" shape-rendering="crispEdges"/>
<path d="M189.24 100V66.7H194.73V81.145L193.695 81.685C193.995 80.605 194.58 79.63 195.45 78.76C196.32 77.86 197.355 77.14 198.555 76.6C199.755 76.06 200.985 75.79 202.245 75.79C204.045 75.79 205.545 76.15 206.745 76.87C207.975 77.59 208.89 78.67 209.49 80.11C210.12 81.55 210.435 83.35 210.435 85.51V100H204.9V85.915C204.9 84.715 204.735 83.725 204.405 82.945C204.075 82.135 203.565 81.55 202.875 81.19C202.185 80.8 201.345 80.62 200.355 80.65C199.545 80.65 198.795 80.785 198.105 81.055C197.445 81.295 196.86 81.655 196.35 82.135C195.87 82.585 195.48 83.11 195.18 83.71C194.91 84.31 194.775 84.97 194.775 85.69V100H192.03C191.49 100 190.98 100 190.5 100C190.05 100 189.63 100 189.24 100ZM217.292 100V76.285H222.827V100H217.292ZM219.992 71.245C218.882 71.245 218.012 70.975 217.382 70.435C216.782 69.865 216.482 69.07 216.482 68.05C216.482 67.09 216.797 66.31 217.427 65.71C218.057 65.11 218.912 64.81 219.992 64.81C221.132 64.81 222.002 65.095 222.602 65.665C223.232 66.205 223.547 67 223.547 68.05C223.547 68.98 223.232 69.745 222.602 70.345C221.972 70.945 221.102 71.245 219.992 71.245ZM230.79 88.93C230.58 87.07 230.37 85.15 230.16 83.17C229.98 81.16 229.83 79.18 229.71 77.23C229.59 75.25 229.53 73.375 229.53 71.605V68.32H235.38V71.605C235.38 73.435 235.32 75.355 235.2 77.365C235.11 79.375 234.96 81.37 234.75 83.35C234.57 85.33 234.36 87.19 234.12 88.93H230.79ZM232.365 100.495C231.285 100.495 230.445 100.18 229.845 99.55C229.275 98.92 228.99 98.035 228.99 96.895C228.99 95.845 229.29 94.99 229.89 94.33C230.52 93.64 231.345 93.295 232.365 93.295C233.445 93.295 234.27 93.61 234.84 94.24C235.44 94.84 235.74 95.725 235.74 96.895C235.74 97.945 235.425 98.815 234.795 99.505C234.195 100.165 233.385 100.495 232.365 100.495ZM255.48 100V76.285H261.015V100H255.48ZM258.18 71.245C257.07 71.245 256.2 70.975 255.57 70.435C254.97 69.865 254.67 69.07 254.67 68.05C254.67 67.09 254.985 66.31 255.615 65.71C256.245 65.11 257.1 64.81 258.18 64.81C259.32 64.81 260.19 65.095 260.79 65.665C261.42 66.205 261.735 67 261.735 68.05C261.735 68.98 261.42 69.745 260.79 70.345C260.16 70.945 259.29 71.245 258.18 71.245ZM267.629 79.345L265.784 77.14C266.984 76.6 267.959 75.97 268.709 75.25C269.459 74.5 269.834 73.87 269.834 73.36C269.834 73 269.684 72.67 269.384 72.37C269.114 72.04 268.814 71.755 268.484 71.515C267.794 70.975 267.329 70.51 267.089 70.12C266.849 69.73 266.729 69.295 266.729 68.815C266.729 68.035 267.014 67.405 267.584 66.925C268.184 66.445 268.934 66.205 269.834 66.205C270.674 66.205 271.439 66.43 272.129 66.88C272.849 67.33 273.404 67.945 273.794 68.725C274.184 69.505 274.379 70.435 274.379 71.515C274.379 72.355 274.214 73.18 273.884 73.99C273.554 74.8 273.074 75.565 272.444 76.285C271.844 76.975 271.124 77.59 270.284 78.13C269.474 78.67 268.589 79.075 267.629 79.345ZM277.963 100V76.285H283.408L283.498 81.055L282.598 81.415C282.868 80.635 283.273 79.915 283.813 79.255C284.353 78.565 284.998 77.98 285.748 77.5C286.498 76.99 287.293 76.6 288.133 76.33C288.973 76.03 289.828 75.88 290.698 75.88C291.988 75.88 293.128 76.09 294.118 76.51C295.138 76.9 295.978 77.53 296.638 78.4C297.328 79.27 297.838 80.38 298.168 81.73L297.313 81.55L297.673 80.83C298.003 80.11 298.468 79.465 299.068 78.895C299.668 78.295 300.343 77.77 301.093 77.32C301.843 76.84 302.623 76.48 303.433 76.24C304.273 76 305.098 75.88 305.908 75.88C307.708 75.88 309.208 76.24 310.408 76.96C311.608 77.68 312.508 78.775 313.108 80.245C313.708 81.715 314.008 83.53 314.008 85.69V100H308.428V86.05C308.428 84.85 308.263 83.86 307.933 83.08C307.633 82.3 307.153 81.73 306.493 81.37C305.863 80.98 305.068 80.785 304.108 80.785C303.358 80.785 302.638 80.92 301.948 81.19C301.288 81.43 300.718 81.79 300.238 82.27C299.758 82.72 299.383 83.245 299.113 83.845C298.843 84.445 298.708 85.105 298.708 85.825V100H293.128V86.005C293.128 84.865 292.963 83.92 292.633 83.17C292.303 82.39 291.823 81.805 291.193 81.415C290.563 80.995 289.798 80.785 288.898 80.785C288.148 80.785 287.443 80.92 286.783 81.19C286.123 81.43 285.553 81.775 285.073 82.225C284.593 82.675 284.218 83.2 283.948 83.8C283.678 84.4 283.543 85.06 283.543 85.78V100H277.963Z" fill="#DFDFDF"/>
<g filter="url(#filter1_i_2025_154)">
<path d="M222.958 228.26C216.704 228.26 211.151 226.627 206.298 223.36C201.444 220 197.618 215.427 194.818 209.64C192.018 203.76 190.618 197.04 190.618 189.48C190.618 181.827 191.971 175.107 194.678 169.32C197.478 163.44 201.304 158.867 206.158 155.6C211.104 152.24 216.798 150.56 223.238 150.56C226.598 150.56 229.678 151.027 232.478 151.96C235.278 152.893 237.751 154.2 239.898 155.88C242.044 157.56 243.911 159.52 245.498 161.76C247.084 163.907 248.438 166.24 249.558 168.76L243.818 168.62V152.1H271.678V227H243.118V208.66L249.418 209.22C248.484 211.927 247.178 214.447 245.498 216.78C243.911 219.113 241.998 221.12 239.758 222.8C237.518 224.48 234.998 225.833 232.198 226.86C229.398 227.793 226.318 228.26 222.958 228.26ZM231.078 205.16C233.784 205.16 236.071 204.553 237.938 203.34C239.898 202.127 241.344 200.353 242.278 198.02C243.304 195.687 243.818 192.84 243.818 189.48C243.818 186.12 243.304 183.273 242.278 180.94C241.344 178.513 239.898 176.693 237.938 175.48C236.071 174.267 233.784 173.66 231.078 173.66C228.371 173.66 226.084 174.267 224.218 175.48C222.351 176.693 220.904 178.513 219.878 180.94C218.944 183.273 218.478 186.12 218.478 189.48C218.478 192.84 218.944 195.687 219.878 198.02C220.904 200.353 222.351 202.127 224.218 203.34C226.084 204.553 228.371 205.16 231.078 205.16ZM289.837 227V123.4H318.257V227H289.837ZM371.318 228.4C362.638 228.4 355.172 226.72 348.918 223.36C342.665 220 337.858 215.427 334.498 209.64C331.138 203.76 329.458 197.04 329.458 189.48C329.458 183.88 330.392 178.7 332.258 173.94C334.125 169.18 336.738 165.073 340.098 161.62C343.552 158.073 347.565 155.367 352.138 153.5C356.805 151.54 361.892 150.56 367.398 150.56C372.905 150.56 377.898 151.54 382.378 153.5C386.952 155.367 390.872 158.073 394.138 161.62C397.405 165.073 399.878 169.18 401.558 173.94C403.332 178.7 404.125 183.88 403.938 189.48L403.798 195.36H345.138L341.918 182.06H381.258L378.598 184.86V182.34C378.598 180.567 378.132 179.027 377.198 177.72C376.358 176.32 375.145 175.247 373.558 174.5C371.972 173.753 370.105 173.38 367.958 173.38C365.252 173.38 362.965 173.94 361.098 175.06C359.232 176.18 357.785 177.767 356.758 179.82C355.825 181.873 355.358 184.347 355.358 187.24C355.358 190.6 356.058 193.54 357.458 196.06C358.952 198.58 361.098 200.54 363.898 201.94C366.792 203.34 370.338 204.04 374.538 204.04C377.338 204.04 379.718 203.713 381.678 203.06C383.732 202.313 385.878 201.147 388.118 199.56L401.138 217.9C397.685 220.607 394.278 222.707 390.918 224.2C387.652 225.693 384.385 226.767 381.118 227.42C377.945 228.073 374.678 228.4 371.318 228.4ZM458.819 227L448.879 208.24L437.679 192.42L409.539 152.1H442.859L452.099 169.18L464.139 185.84L492.139 227H458.819ZM408.279 227L438.939 182.34L453.639 199.84L441.599 227H408.279ZM460.639 197.04L445.939 179.54L458.119 152.1H491.439L460.639 197.04ZM554.759 227V133.2H583.179V227H554.759ZM543.139 175.9V152.1H595.499V175.9H543.139ZM613.864 259.2L632.484 215.24L632.764 226.72L597.624 152.1H629.264L639.624 177.02C640.744 179.633 641.677 182.107 642.424 184.44C643.264 186.773 643.871 188.967 644.244 191.02L641.444 193.54C641.817 192.513 642.377 190.927 643.124 188.78C643.871 186.54 644.711 183.973 645.644 181.08L655.444 152.1H687.084L654.464 227L641.304 259.2H613.864ZM696.242 227V123.4H723.962V167.22L717.942 168.9C718.969 165.353 720.789 162.227 723.402 159.52C726.109 156.72 729.329 154.527 733.062 152.94C736.795 151.353 740.762 150.56 744.962 150.56C750.562 150.56 755.322 151.727 759.242 154.06C763.162 156.393 766.102 159.847 768.062 164.42C770.115 168.9 771.142 174.36 771.142 180.8V227H742.722V183.18C742.722 181.127 742.395 179.4 741.742 178C741.089 176.6 740.109 175.527 738.802 174.78C737.495 174.033 735.955 173.66 734.182 173.66C732.782 173.66 731.475 173.893 730.262 174.36C729.142 174.733 728.162 175.34 727.322 176.18C726.482 177.02 725.829 177.953 725.362 178.98C724.895 180.007 724.662 181.173 724.662 182.48V227H710.522C706.975 227 703.989 227 701.562 227C699.229 227 697.455 227 696.242 227ZM850.473 227L826.393 152.1H856.633L867.413 195.36L864.613 194.8L876.933 161.2H893.453L907.173 194.8L904.373 195.22L915.013 152.1H945.253L919.633 227H898.073L885.193 192.28H885.753L872.033 227H850.473ZM979.094 228.26C972.841 228.26 967.288 226.627 962.434 223.36C957.581 220 953.754 215.427 950.954 209.64C948.154 203.76 946.754 197.04 946.754 189.48C946.754 181.827 948.108 175.107 950.814 169.32C953.614 163.44 957.441 158.867 962.294 155.6C967.241 152.24 972.934 150.56 979.374 150.56C982.734 150.56 985.814 151.027 988.614 151.96C991.414 152.893 993.888 154.2 996.034 155.88C998.181 157.56 1000.05 159.52 1001.63 161.76C1003.22 163.907 1004.57 166.24 1005.69 168.76L999.954 168.62V152.1H1027.81V227H999.254V208.66L1005.55 209.22C1004.62 211.927 1003.31 214.447 1001.63 216.78C1000.05 219.113 998.134 221.12 995.894 222.8C993.654 224.48 991.134 225.833 988.334 226.86C985.534 227.793 982.454 228.26 979.094 228.26ZM987.214 205.16C989.921 205.16 992.208 204.553 994.074 203.34C996.034 202.127 997.481 200.353 998.414 198.02C999.441 195.687 999.954 192.84 999.954 189.48C999.954 186.12 999.441 183.273 998.414 180.94C997.481 178.513 996.034 176.693 994.074 175.48C992.208 174.267 989.921 173.66 987.214 173.66C984.508 173.66 982.221 174.267 980.354 175.48C978.488 176.693 977.041 178.513 976.014 180.94C975.081 183.273 974.614 186.12 974.614 189.48C974.614 192.84 975.081 195.687 976.014 198.02C977.041 200.353 978.488 202.127 980.354 203.34C982.221 204.553 984.508 205.16 987.214 205.16ZM1045.97 227V152.1H1072.29L1073.69 167.22L1067.67 168.9C1068.7 165.353 1070.52 162.227 1073.13 159.52C1075.84 156.72 1079.06 154.527 1082.79 152.94C1086.53 151.353 1090.49 150.56 1094.69 150.56C1100.29 150.56 1105.05 151.727 1108.97 154.06C1112.89 156.393 1115.83 159.847 1117.79 164.42C1119.85 168.9 1120.87 174.36 1120.87 180.8V227H1092.45V183.18C1092.45 181.127 1092.13 179.4 1091.47 178C1090.82 176.6 1089.84 175.527 1088.53 174.78C1087.23 174.033 1085.69 173.66 1083.91 173.66C1082.51 173.66 1081.21 173.893 1079.99 174.36C1078.87 174.733 1077.89 175.34 1077.05 176.18C1076.21 177.02 1075.56 177.953 1075.09 178.98C1074.63 180.007 1074.39 181.173 1074.39 182.48V227H1060.25C1056.71 227 1053.72 227 1051.29 227C1048.96 227 1047.19 227 1045.97 227ZM1172.54 259.2C1165.82 259.2 1159.15 258.267 1152.52 256.4C1145.99 254.533 1140.62 252.107 1136.42 249.12L1146.08 230.08C1148.13 231.387 1150.28 232.507 1152.52 233.44C1154.76 234.373 1157.09 235.073 1159.52 235.54C1162.04 236.007 1164.7 236.24 1167.5 236.24C1171.89 236.24 1175.43 235.633 1178.14 234.42C1180.85 233.3 1182.81 231.48 1184.02 228.96C1185.33 226.44 1185.98 223.22 1185.98 219.3V208.1L1192.28 208.66C1191.53 211.833 1189.9 214.633 1187.38 217.06C1184.86 219.487 1181.73 221.4 1178 222.8C1174.27 224.2 1170.3 224.9 1166.1 224.9C1159.47 224.9 1153.59 223.407 1148.46 220.42C1143.42 217.433 1139.41 213.28 1136.42 207.96C1133.53 202.547 1132.08 196.2 1132.08 188.92C1132.08 181.36 1133.53 174.733 1136.42 169.04C1139.31 163.253 1143.23 158.727 1148.18 155.46C1153.22 152.193 1158.96 150.56 1165.4 150.56C1168.2 150.56 1170.86 150.84 1173.38 151.4C1175.9 151.96 1178.23 152.753 1180.38 153.78C1182.53 154.713 1184.44 155.88 1186.12 157.28C1187.8 158.68 1189.15 160.22 1190.18 161.9C1191.3 163.58 1192.05 165.4 1192.42 167.36L1186.68 168.62L1188.22 152.1H1214.54V219.72C1214.54 225.973 1213.56 231.527 1211.6 236.38C1209.73 241.327 1206.98 245.48 1203.34 248.84C1199.7 252.293 1195.27 254.86 1190.04 256.54C1184.91 258.313 1179.07 259.2 1172.54 259.2ZM1173.24 204.6C1176.13 204.6 1178.56 203.993 1180.52 202.78C1182.57 201.567 1184.11 199.84 1185.14 197.6C1186.17 195.267 1186.68 192.467 1186.68 189.2C1186.68 185.933 1186.17 183.133 1185.14 180.8C1184.11 178.467 1182.57 176.693 1180.52 175.48C1178.56 174.267 1176.13 173.66 1173.24 173.66C1170.35 173.66 1167.92 174.267 1165.96 175.48C1164 176.693 1162.51 178.467 1161.48 180.8C1160.45 183.133 1159.94 185.933 1159.94 189.2C1159.94 192.467 1160.45 195.267 1161.48 197.6C1162.51 199.84 1164 201.567 1165.96 202.78C1167.92 203.993 1170.35 204.6 1173.24 204.6Z" fill="#E9E9E9"/>
</g>
</g>
<defs>
<filter id="filter0_d_2025_154" x="0" y="0" width="1410" height="317" filterUnits="userSpaceOnUse" color-interpolation-filters="sRGB">
<feFlood flood-opacity="0" result="BackgroundImageFix"/>
<feColorMatrix in="SourceAlpha" type="matrix" values="0 0 0 0 0 0 0 0 0 0 0 0 0 0 0 0 0 0 127 0" result="hardAlpha"/>
<feOffset/>
<feGaussianBlur stdDeviation="2.5"/>
<feComposite in2="hardAlpha" operator="out"/>
<feColorMatrix type="matrix" values="0 0 0 0 0.00392157 0 0 0 0 0.458824 0 0 0 0 0.819608 0 0 0 0.25 0"/>
<feBlend mode="normal" in2="BackgroundImageFix" result="effect1_dropShadow_2025_154"/>
<feBlend mode="normal" in="SourceGraphic" in2="effect1_dropShadow_2025_154" result="shape"/>
</filter>
<filter id="filter1_i_2025_154" x="190.618" y="123.4" width="1023.92" height="140.8" filterUnits="userSpaceOnUse" color-interpolation-filters="sRGB">
<feFlood flood-opacity="0" result="BackgroundImageFix"/>
<feBlend mode="normal" in="SourceGraphic" in2="BackgroundImageFix" result="shape"/>
<feColorMatrix in="SourceAlpha" type="matrix" values="0 0 0 0 0 0 0 0 0 0 0 0 0 0 0 0 0 0 127 0" result="hardAlpha"/>
<feOffset dy="5"/>
<feGaussianBlur stdDeviation="2.5"/>
<feComposite in2="hardAlpha" operator="arithmetic" k2="-1" k3="1"/>
<feColorMatrix type="matrix" values="0 0 0 0 0 0 0 0 0 0 0 0 0 0 0 0 0 0 0.2 0"/>
<feBlend mode="normal" in2="shape" result="effect1_innerShadow_2025_154"/>
</filter>
<linearGradient id="paint0_linear_2025_154" x1="-73.2069" y1="-49.7129" x2="1347.06" y2="625.574" gradientUnits="userSpaceOnUse">
<stop stop-color="#00A6FF"/>
<stop offset="1" stop-color="#0053B2"/>
</linearGradient>
</defs>
</svg>
