<svg width="135" height="135" viewBox="0 0 135 135" fill="none" xmlns="http://www.w3.org/2000/svg">
<rect width="135" height="135" rx="25" fill="#F8EEE1"/>
<path d="M18.8887 57.5495C18.8887 46.7975 27.6049 38.0813 38.3569 38.0813V38.0813V66.259H18.8887V57.5495Z" fill="#3B2E1E" stroke="#3B2E1E" stroke-width="0.798289"/>
<rect x="18.8887" y="66.259" width="19.4682" height="2.25611" fill="#3B2E1E" stroke="#3B2E1E" stroke-width="0.798289"/>
<path d="M18.8887 77.2246C18.8887 87.9766 27.6049 96.6929 38.3569 96.6929V96.6929V68.5152H18.8887V77.2246Z" fill="#3B2E1E" stroke="#3B2E1E" stroke-width="0.798289"/>
<rect x="36.2246" y="38.0769" width="55.3094" height="58.6115" fill="#3B2E1E"/>
<rect x="36.2246" y="38.0769" width="55.3094" height="58.6115" stroke="#3B2E1E" stroke-width="0.798289"/>
<path d="M111.002 57.5451C111.002 46.7931 102.286 38.0769 91.5342 38.0769V38.0769V66.2546H111.002V57.5451Z" fill="#3B2E1E" stroke="#3B2E1E" stroke-width="0.798289"/>
<rect width="19.4682" height="2.25588" transform="matrix(-1 0 0 1 111.002 66.2549)" fill="#3B2E1E" stroke="#3B2E1E" stroke-width="0.798289"/>
<path d="M91.5342 68.5107V96.6885C96.249 96.6885 100.572 95.0114 103.94 92.2227C107.301 94.4615 112.689 96.5908 119.199 95.4072C117.406 94.6383 110.49 90.0275 110.746 80.8066C110.716 80.8486 110.681 80.8877 110.648 80.9277C110.88 79.7273 111.002 78.4877 111.002 77.2197V68.5107H91.5342Z" fill="#3B2E1E"/>
<path d="M91.5342 68.5107H91.135V68.1116H91.5342V68.5107ZM91.5342 96.6885V97.0876H91.135V96.6885H91.5342ZM103.94 92.2227L103.686 91.9152L103.915 91.7258L104.162 91.8905L103.94 92.2227ZM119.199 95.4072L119.356 95.0404L120.575 95.5628L119.271 95.7999L119.199 95.4072ZM110.746 80.8066L110.423 80.5718L111.181 79.5307L111.145 80.8177L110.746 80.8066ZM110.648 80.9277L110.956 81.1817L110.257 80.8522L110.648 80.9277ZM111.002 68.5107V68.1116H111.401V68.5107H111.002ZM91.5342 68.5107H91.9333V96.6885H91.5342H91.135V68.5107H91.5342ZM91.5342 96.6885V96.2893C96.1526 96.2893 100.386 94.6469 103.686 91.9152L103.94 92.2227L104.195 92.5301C100.757 95.3759 96.3454 97.0876 91.5342 97.0876V96.6885ZM103.94 92.2227L104.162 91.8905C107.46 94.0882 112.745 96.175 119.128 95.0145L119.199 95.4072L119.271 95.7999C112.633 97.0067 107.141 94.8348 103.719 92.5548L103.94 92.2227ZM119.199 95.4072L119.042 95.7741C118.084 95.3634 115.854 93.9778 113.892 91.5257C111.923 89.0639 110.216 85.5161 110.347 80.7956L110.746 80.8066L111.145 80.8177C111.02 85.318 112.643 88.686 114.516 91.027C116.396 93.3778 118.521 94.6821 119.356 95.0404L119.199 95.4072ZM110.746 80.8066L111.069 81.0415C111.029 81.0964 110.98 81.153 110.956 81.1817L110.648 80.9277L110.34 80.6738C110.383 80.6223 110.402 80.6007 110.423 80.5718L110.746 80.8066ZM110.648 80.9277L110.257 80.8522C110.483 79.6764 110.603 78.462 110.603 77.2197H111.002H111.401C111.401 78.5134 111.277 79.7783 111.04 81.0033L110.648 80.9277ZM111.002 77.2197H110.603V68.5107H111.002H111.401V77.2197H111.002ZM111.002 68.5107V68.9099H91.5342V68.5107V68.1116H111.002V68.5107Z" fill="#3B2E1E"/>
</svg>
