<svg width="180" height="180" viewBox="0 0 180 180" fill="none" xmlns="http://www.w3.org/2000/svg">
<path d="M8.94971 73.4544C8.94971 55.5344 23.4767 41.0073 41.3967 41.0073V41.0073V87.9701H8.94971V73.4544Z" fill="#3B2E1E" stroke="#3B2E1E" stroke-width="1.33048"/>
<rect x="8.94971" y="87.9701" width="32.447" height="3.76018" fill="#3B2E1E" stroke="#3B2E1E" stroke-width="1.33048"/>
<path d="M8.94971 106.246C8.94971 124.166 23.4767 138.693 41.3967 138.693V138.693V91.7304H8.94971V106.246Z" fill="#3B2E1E" stroke="#3B2E1E" stroke-width="1.33048"/>
<rect x="37.8433" y="41" width="92.1824" height="97.6858" fill="#3B2E1E"/>
<rect x="37.8433" y="41" width="92.1824" height="97.6858" stroke="#3B2E1E" stroke-width="1.33048"/>
<path d="M162.473 73.447C162.473 55.527 147.946 41 130.026 41V41V87.9628H162.473V73.447Z" fill="#3B2E1E" stroke="#3B2E1E" stroke-width="1.33048"/>
<rect width="32.447" height="3.7598" transform="matrix(-1 0 0 1 162.473 87.9628)" fill="#3B2E1E" stroke="#3B2E1E" stroke-width="1.33048"/>
<path d="M130.025 91.7229V138.686C137.883 138.686 145.089 135.892 150.703 131.244C156.304 134.976 165.284 138.524 176.134 136.551C173.145 135.27 161.618 127.585 162.045 112.216C161.993 112.288 161.938 112.357 161.881 112.426C162.268 110.423 162.473 108.355 162.473 106.239V91.7229H130.025Z" fill="#3B2E1E"/>
<path d="M130.025 91.7229H129.36V91.0577H130.025V91.7229ZM130.025 138.686V139.351H129.36V138.686H130.025ZM150.703 131.244L150.279 130.732L150.66 130.416L151.072 130.691L150.703 131.244ZM176.134 136.551L176.396 135.94L178.427 136.81L176.253 137.206L176.134 136.551ZM162.045 112.216L161.507 111.825L162.769 110.089L162.71 112.235L162.045 112.216ZM161.881 112.426L162.393 112.85L161.228 112.3L161.881 112.426ZM162.473 91.7229V91.0577H163.138V91.7229H162.473ZM130.025 91.7229H130.691V138.686H130.025H129.36V91.7229H130.025ZM130.025 138.686V138.021C137.723 138.021 144.779 135.285 150.279 130.732L150.703 131.244L151.127 131.757C145.398 136.5 138.044 139.351 130.025 139.351V138.686ZM150.703 131.244L151.072 130.691C156.57 134.353 165.377 137.831 176.015 135.897L176.134 136.551L176.253 137.206C165.191 139.217 156.038 135.598 150.334 131.798L150.703 131.244ZM176.134 136.551L175.872 137.162C174.275 136.478 170.558 134.169 167.289 130.082C164.007 125.979 161.161 120.066 161.38 112.198L162.045 112.216L162.71 112.235C162.502 119.735 165.207 125.349 168.328 129.251C171.462 133.169 175.003 135.343 176.396 135.94L176.134 136.551ZM162.045 112.216L162.583 112.607C162.52 112.694 162.456 112.775 162.393 112.85L161.881 112.426L161.368 112.002C161.419 111.94 161.465 111.882 161.507 111.825L162.045 112.216ZM161.881 112.426L161.228 112.3C161.607 110.338 161.807 108.311 161.807 106.239H162.473H163.138C163.138 108.398 162.929 110.508 162.534 112.552L161.881 112.426ZM162.473 106.239H161.807V91.7229H162.473H163.138V106.239H162.473ZM162.473 91.7229V92.3881H130.025V91.7229V91.0577H162.473V91.7229Z" fill="#3B2E1E"/>
</svg>
