<svg width="64" height="64" viewBox="0 0 64 64" xmlns="http://www.w3.org/2000/svg" role="img" aria-label="iMessages Chatbot Server">
  <rect width="64" height="64" rx="14" fill="#16a34a"/>
  <path d="M17 17h30a9 9 0 0 1 9 9v7a9 9 0 0 1-9 9h-8l-8 7v-7H17a9 9 0 0 1-9-9v-7a9 9 0 0 1 9-9z" fill="#ecfdf5"/>
  <rect x="21" y="25" width="22" height="15" rx="5" fill="#052e16"/>
  <rect x="30" y="20" width="4" height="5" fill="#052e16"/>
  <circle cx="32" cy="18" r="3" fill="#052e16"/>
  <circle cx="28" cy="32" r="2" fill="#bbf7d0"/>
  <circle cx="36" cy="32" r="2" fill="#bbf7d0"/>
  <path d="M27 37h10" stroke="#bbf7d0" stroke-width="2" stroke-linecap="round"/>
</svg>
