<svg width="512" height="512" viewBox="0 0 512 512" xmlns="http://www.w3.org/2000/svg">
  <rect width="512" height="512" rx="90" fill="#1192F7"/>
  <path transform="translate(15.738180674416483,175.21051596922794) scale(0.671009003577841)" d="M131.95 173.8C123.95 173.8 116.85 172.15 110.65 168.85C104.55 165.45 99.75 160.8 96.25 154.9C92.75 149 91 142.2 91 134.5C91 126.8 92.7 120 96.1 114.1C99.6 108.2 104.4 103.6 110.5 100.3C116.7 96.9 123.75 95.2 131.65 95.2C139.65 95.2 146.7 96.9 152.8 100.3C159 103.6 163.8 108.2 167.2 114.1C170.7 120 172.45 126.8 172.45 134.5C172.45 142.2 170.7 149 167.2 154.9C163.8 160.8 159.05 165.45 152.95 168.85C146.85 172.15 139.85 173.8 131.95 173.8ZM131.95 148.9C134.45 148.9 136.65 148.3 138.55 147.1C140.45 145.8 141.95 144.1 143.05 142C144.15 139.8 144.7 137.3 144.7 134.5C144.7 131.7 144.15 129.25 143.05 127.15C141.95 124.95 140.4 123.25 138.4 122.05C136.5 120.75 134.25 120.1 131.65 120.1C129.15 120.1 126.9 120.75 124.9 122.05C123 123.25 121.5 124.95 120.4 127.15C119.3 129.25 118.75 131.7 118.75 134.5C118.75 137.3 119.3 139.8 120.4 142C121.5 144.1 123.05 145.8 125.05 147.1C127.05 148.3 129.35 148.9 131.95 148.9ZM206.951 173.8C200.851 173.8 195.801 172.6 191.801 170.2C187.801 167.7 184.801 163.95 182.801 158.95C180.901 153.95 179.951 147.6 179.951 139.9V97H206.951V135.4C206.951 138.2 207.251 140.55 207.851 142.45C208.551 144.35 209.501 145.8 210.701 146.8C212.001 147.8 213.601 148.35 215.501 148.45C219.301 148.55 222.151 147.65 224.051 145.75C225.951 143.85 226.901 140.9 226.901 136.9V97H253.901V172H228.401L227.351 162.85C224.951 166.35 222.001 169.05 218.501 170.95C215.001 172.85 211.151 173.8 206.951 173.8ZM265.92 172V97H292.92V111.1C296.12 106.4 300.07 102.85 304.77 100.45C309.57 97.95 314.47 96.7 319.47 96.7V123.1C314.77 123.1 310.37 123.55 306.27 124.45C302.27 125.25 299.02 126.5 296.52 128.2C294.12 129.9 292.92 131.95 292.92 134.35V172H265.92ZM374.069 173.8C369.469 173.8 365.469 172.95 362.069 171.25C358.669 169.45 355.819 166.85 353.519 163.45L352.619 172H326.969V67H353.969V104.8C356.269 101.6 359.069 99.2 362.369 97.6C365.669 96 369.569 95.2 374.069 95.2C381.169 95.2 387.219 96.75 392.219 99.85C397.319 102.95 401.219 107.45 403.919 113.35C406.619 119.15 407.969 126.2 407.969 134.5C407.969 142.7 406.619 149.75 403.919 155.65C401.219 161.55 397.319 166.05 392.219 169.15C387.219 172.25 381.169 173.8 374.069 173.8ZM366.869 148.9C369.369 148.9 371.569 148.3 373.469 147.1C375.369 145.8 376.869 144.1 377.969 142C379.169 139.8 379.769 137.3 379.769 134.5C379.769 131.7 379.219 129.25 378.119 127.15C377.019 124.95 375.519 123.25 373.619 122.05C371.719 120.85 369.519 120.25 367.019 120.25C364.519 120.25 362.269 120.85 360.269 122.05C358.269 123.25 356.719 124.95 355.619 127.15C354.519 129.25 353.969 131.7 353.969 134.5C353.969 137.3 354.519 139.8 355.619 142C356.719 144.1 358.219 145.8 360.119 147.1C362.119 148.3 364.369 148.9 366.869 148.9ZM454.239 173.8C446.139 173.8 438.939 172.15 432.639 168.85C426.339 165.55 421.389 160.95 417.789 155.05C414.289 149.15 412.539 142.3 412.539 134.5C412.539 126.7 414.289 119.85 417.789 113.95C421.289 108.05 426.139 103.45 432.339 100.15C438.539 96.85 445.689 95.2 453.789 95.2C461.489 95.2 468.239 96.9 474.039 100.3C479.939 103.6 484.539 108.65 487.839 115.45C491.239 122.25 492.939 130.85 492.939 141.25H440.439C440.939 144.95 442.289 147.9 444.489 150.1C446.789 152.2 449.789 153.25 453.489 153.25C456.789 153.25 459.639 152.5 462.039 151C464.539 149.4 466.089 147.45 466.689 145.15L490.389 152.5C488.589 157.7 485.689 161.9 481.689 165.1C477.789 168.2 473.389 170.45 468.489 171.85C463.689 173.15 458.939 173.8 454.239 173.8ZM440.589 124.75H465.489C464.989 121.95 464.089 119.75 462.789 118.15C461.489 116.55 459.989 115.45 458.289 114.85C456.589 114.15 454.839 113.8 453.039 113.8C451.239 113.8 449.489 114.15 447.789 114.85C446.089 115.45 444.589 116.55 443.289 118.15C441.989 119.75 441.089 121.95 440.589 124.75ZM533.2 173.8C523.9 173.8 517 171.6 512.5 167.2C508 162.8 505.75 156.5 505.75 148.3V119.5H494.5V97H505.75V73.6H532.75V97H548.2V119.5H532.75V140.95C532.75 143.75 533.15 145.75 533.95 146.95C534.75 148.15 536.1 148.75 538 148.75C538.8 148.75 539.8 148.5 541 148C542.2 147.5 543.15 147 543.85 146.5L553 166C550.7 168 547.7 169.8 544 171.4C540.3 173 536.7 173.8 533.2 173.8ZM590.321 173.8C585.321 173.8 580.671 173.1 576.371 171.7C572.071 170.3 568.371 168.35 565.271 165.85C562.271 163.25 560.171 160.15 558.971 156.55L580.421 148.15C581.521 150.85 583.071 152.6 585.071 153.4C587.071 154.1 588.821 154.45 590.321 154.45C591.921 154.45 593.221 154.1 594.221 153.4C595.221 152.7 595.721 151.7 595.721 150.4C595.721 149 595.021 147.85 593.621 146.95C592.221 145.95 590.071 145.1 587.171 144.4L581.021 142.9C574.321 141.2 569.271 138.25 565.871 134.05C562.471 129.85 560.771 124.95 560.771 119.35C560.771 111.65 563.571 105.7 569.171 101.5C574.871 97.3 582.571 95.2 592.271 95.2C598.171 95.2 603.121 95.95 607.121 97.45C611.221 98.85 614.571 100.85 617.171 103.45C619.771 106.05 621.771 109.05 623.171 112.45L602.321 120.4C601.621 118.4 600.421 116.95 598.721 116.05C597.121 115.15 595.121 114.7 592.721 114.7C591.021 114.7 589.671 115.1 588.671 115.9C587.771 116.7 587.321 117.65 587.321 118.75C587.321 119.95 588.021 121 589.421 121.9C590.921 122.7 593.171 123.5 596.171 124.3L602.321 125.8C606.921 126.9 610.921 128.6 614.321 130.9C617.721 133.1 620.371 135.85 622.271 139.15C624.171 142.45 625.121 146.25 625.121 150.55C625.121 155.45 623.671 159.65 620.771 163.15C617.871 166.55 613.821 169.2 608.621 171.1C603.421 172.9 597.321 173.8 590.321 173.8Z" fill="white"/>
</svg>