<svg width="101" height="100" viewBox="0 0 101 100" fill="none" xmlns="http://www.w3.org/2000/svg">
<rect x="23.8096" y="23.5" width="53" height="53" rx="6" fill="white"/>
<g clip-path="url(#clip0_2025_175)">
<path d="M34.531 64.7998H40.4364V50.5362L32 44.2435V62.2828C32 63.6735 33.1326 64.8 34.531 64.8V64.7998Z" fill="#4285F4"/>
<path d="M60.6836 64.7998H66.5891C67.9874 64.7998 69.12 63.6734 69.12 62.2827V44.2435L60.6836 50.5362V64.7998Z" fill="#34A853"/>
<path d="M60.6836 39.6288V50.5363L69.12 44.2435V40.8874C69.12 37.7766 65.5494 36 63.0458 37.8668L60.6836 39.6288Z" fill="#FBBC04"/>
<path fill-rule="evenodd" clip-rule="evenodd" d="M40.4363 50.5363V39.6288L50.56 47.1801L60.6836 39.6288V50.5363L50.56 58.0875L40.4363 50.5363Z" fill="#EA4335"/>
<path d="M32 40.8874V44.2435L40.4364 50.5363V39.6288L38.0742 37.8668C35.5706 36 32 37.7766 32 40.8872V40.8874Z" fill="#C5221F"/>
</g>
<defs>
<clipPath id="clip0_2025_175">
<rect width="37.12" height="28.8" fill="white" transform="translate(32 36)"/>
</clipPath>
</defs>
</svg>
