<svg width="101" height="100" viewBox="0 0 101 100" fill="none" xmlns="http://www.w3.org/2000/svg">
<path d="M68.968 68.6592H61.1151V56.3609C61.1151 53.4283 61.0627 49.6531 57.0308 49.6531C52.9407 49.6531 52.3148 52.8485 52.3148 56.1475V68.6584H44.4621V43.3683H52.0007V46.8245H52.1063C52.8608 45.5345 53.951 44.4732 55.2608 43.7538C56.5707 43.0344 58.0512 42.6837 59.5446 42.7391C67.5039 42.7391 68.9713 47.9745 68.9713 54.7854L68.968 68.6592ZM35.6012 39.9115C33.0843 39.9119 31.0436 37.8718 31.0432 35.3549C31.0428 32.8381 33.0826 30.7974 35.5995 30.7969C38.1164 30.7963 40.1571 32.8364 40.1575 35.3533C40.1577 36.5619 39.6778 37.7212 38.8234 38.576C37.9689 39.4308 36.8098 39.9112 35.6012 39.9115ZM39.5277 68.6594H31.6666V43.3683H39.5275V68.6592L39.5277 68.6594ZM72.883 23.5039H27.7205C25.586 23.4798 23.8356 25.1897 23.8095 27.3242V72.675C23.8348 74.8105 25.585 76.5221 27.7203 76.4997H72.883C75.0228 76.5262 76.7799 74.8147 76.8095 72.675V27.3207C76.7791 25.1821 75.0218 23.4724 72.883 23.5003" fill="#0A66C2"/>
</svg>
